# Blender v2.76 (sub 0) OBJ File: 'ExportAll.blend'
# www.blender.org
mtllib Cool House 2.mtl
o polygon6.041
v -7.299805 7.299804 4.700196
v -7.299805 6.100097 4.700196
v -0.399902 10.799799 4.700197
v 0.000000 9.899901 4.700196
v 0.000000 10.999999 4.700197
v 0.399902 10.799799 4.700197
v 7.299805 6.100097 4.700196
v 7.299805 6.100099 -7.249999
v 7.299805 7.299804 4.700196
v 7.299805 7.299806 -7.249999
v 7.299805 7.299804 4.700196
v 0.399902 10.799799 4.700197
v 7.299805 6.100097 4.700196
v 0.000000 9.899901 4.700196
v -7.299805 6.100097 4.700196
v -7.299805 7.299804 4.700196
v -7.299805 6.100099 -7.249999
v -7.299805 7.299806 -7.249999
vt 1.000000 -0.031250
vt 1.000000 -0.414062
vt 0.125000 -0.031250
vt 0.078125 -0.414062
vt 0.031250 -0.031250
vn -0.000000 0.000000 1.000000
vn 1.000000 0.000000 0.000000
vn -1.000000 0.000000 0.000000
usemtl _70
s 1
f 1/1/1 2/2/1 3/3/1
f 2/2/1 4/4/1 3/3/1
f 3/3/1 4/4/1 5/5/1
f 4/4/1 6/3/1 5/5/1
f 7/4/2 8/2/2 9/3/2
f 8/2/2 10/1/2 9/3/2
f 11/1/1 12/3/1 13/2/1
f 12/3/1 14/4/1 13/2/1
f 15/4/3 16/3/3 17/2/3
f 16/3/3 18/1/3 17/2/3
o polygon5.049
v 0.399902 10.799799 4.700197
v 0.399902 10.799801 -7.249998
v 0.000000 10.999999 4.700197
v 0.000000 11.000001 -7.249998
v -0.399902 10.799801 -7.249998
v 7.299805 7.299806 -7.249999
v 0.399902 10.799801 -7.249998
v 7.299805 7.299804 4.700196
v 0.399902 10.799799 4.700197
v -7.299805 7.299806 -7.249999
v -7.299805 7.299804 4.700196
v -0.399902 10.799801 -7.249998
v -0.399902 10.799799 4.700197
v -0.399902 10.799799 4.700197
v 0.000000 10.999999 4.700197
v -0.399902 10.799801 -7.249998
vt 1.080078 0.472656
vt 1.429688 0.472656
vt 1.080078 0.906250
vt 1.429688 0.906250
vt 6.535156 -0.974609
vt 6.535156 2.693359
vt 2.042969 -0.974609
vt 2.042969 2.693359
vn 0.449500 0.893300 0.000000
vn 0.000000 1.000000 -0.000000
vn -0.449500 0.893300 0.000000
vn 0.452400 0.891800 0.000000
vn 0.449600 0.893300 0.000000
vn 0.452800 0.891600 0.000000
vn -0.452400 0.891800 0.000000
vn -0.452800 0.891600 0.000000
vn -0.449600 0.893300 0.000000
usemtl _69
s 1
f 19/6/4 20/7/4 21/8/5
f 20/7/4 22/9/5 21/8/5
f 21/8/5 22/9/5 23/7/6
f 24/10/7 25/11/8 26/12/9
f 25/11/8 27/13/8 26/12/9
f 28/10/10 29/12/11 30/11/12
f 29/12/11 31/13/12 30/11/12
f 32/6/6 33/8/5 34/7/6
o polygon4.054
v -7.000000 5.000000 0.379884
v -7.000000 5.000000 -2.879882
v -7.000000 2.000000 0.379883
v -7.000000 2.000000 -2.879883
v -5.509766 4.839844 3.000001
v -5.509766 2.299804 3.000000
v -2.979980 4.839844 3.000001
v -2.979980 2.299804 3.000000
v 7.000000 2.000000 -2.879883
v 7.000000 5.000000 -2.879882
v 7.000000 2.000000 0.379883
v 7.000000 5.000000 0.379884
v 2.979980 2.299804 3.000000
v 5.509766 2.299804 3.000000
v 2.979980 4.839844 3.000001
v 5.509766 4.839844 3.000001
vt 0.007812 -0.007812
vt 0.992188 -0.007812
vt 0.007812 -0.992188
vt 0.992188 -0.992188
vn -1.000000 0.000000 0.000000
vn 0.000000 -0.000000 1.000000
vn 1.000000 0.000000 0.000000
usemtl _67
s 1
f 35/14/13 36/15/13 37/16/13
f 36/15/13 38/17/13 37/16/13
f 39/15/14 40/17/14 41/14/14
f 40/17/14 42/16/14 41/14/14
f 43/17/15 44/15/15 45/16/15
f 44/15/15 46/14/15 45/16/15
f 47/16/14 48/17/14 49/14/14
f 48/17/14 50/15/14 49/14/14
o polygon8.036
v 2.000000 1.000000 2.000000
v -2.000000 1.000000 2.000000
v 2.000000 1.000000 3.000000
v -2.000000 1.000000 3.000000
v -2.000000 0.999999 4.750000
v -7.000000 0.999999 4.750000
v -7.000000 2.700194 4.750000
v -6.600098 2.700194 4.750000
v -7.000000 2.999999 4.750000
v -2.399902 2.700194 4.750000
v -2.000000 2.999999 4.750000
v -7.000000 1.000001 -6.750000
v -7.000000 0.000001 -6.750000
v -7.000000 1.000000 3.000000
v -7.000000 -0.000001 4.750000
v -7.000000 0.999999 4.750000
v 7.000000 0.999999 4.750000
v 7.000000 1.000000 3.000000
v 2.000000 0.999999 4.750000
v 2.000000 1.000000 3.000000
v -2.000000 0.999999 4.750000
v 7.000000 2.700194 4.750000
v 7.000000 2.700194 4.350099
v 7.000000 2.999999 4.750000
v 7.000000 2.700195 3.000000
v 7.000000 3.000000 3.000000
v 7.000000 2.700194 4.750000
v 7.000000 2.999999 4.750000
v 6.600098 2.700194 4.750000
v 2.000000 2.999999 4.750000
v 2.399902 2.700194 4.750000
v -7.000000 0.999999 4.750000
v -7.000000 2.700194 4.750000
v -7.000000 0.999999 4.350098
v -7.000000 2.700194 4.350099
v -6.600098 0.999999 4.750000
v -6.600098 0.999999 4.350098
v -6.600098 2.700194 4.750000
v -6.600098 2.700194 4.350099
v -6.600098 2.700194 4.350099
v -6.600098 2.700195 3.000000
v -6.600098 2.999999 4.350099
v -6.600098 3.000000 3.000000
v 2.000000 0.999999 4.750000
v 2.000000 -0.000001 4.750000
v 7.000000 0.999999 4.750000
v 7.000000 -0.000001 4.750000
v -7.000000 3.000000 3.000000
v -7.000000 2.999999 4.750000
v -6.600098 3.000000 3.000000
v -6.600098 2.999999 4.350099
v 7.000000 1.000001 -6.750000
v 7.000000 1.000000 3.000000
v 7.000000 0.000001 -6.750000
v 7.000000 -0.000001 4.750000
v 2.000000 2.999999 4.350099
v 2.000000 0.999999 4.350098
v 2.000000 2.999999 4.750000
v 2.000000 0.999999 4.750000
v -7.000000 2.700195 3.000000
v -7.000000 2.700194 4.350099
v -7.000000 3.000000 3.000000
v -7.000000 2.999999 4.750000
v 2.000000 2.200194 6.250000
v 2.000000 -0.000001 6.250000
v 2.399902 2.200194 6.250000
v 2.399902 -0.000001 6.250000
v -2.000000 -0.000001 6.250000
v -2.000000 2.200194 6.250000
v -2.399902 -0.000001 6.250000
v -2.399902 2.200194 6.250000
v -2.000000 -0.000001 4.750000
v -2.000000 0.999999 4.750000
v -7.000000 -0.000001 4.750000
v -7.000000 0.999999 4.750000
v -2.000000 2.999999 4.350099
v -6.600098 2.999999 4.350099
v -2.000000 2.999999 4.750000
v -7.000000 2.999999 4.750000
v -2.000000 2.200194 6.250000
v -2.000000 2.200194 5.850099
v -2.399902 2.200194 6.250000
v -2.399902 2.200194 5.850099
v -2.399902 -0.000001 6.250000
v -2.399902 2.200194 6.250000
v -2.399902 -0.000001 5.850098
v -2.399902 1.700194 5.850099
v -6.600098 0.999999 4.750000
v -6.600098 2.700194 4.750000
v -7.000000 0.999999 4.750000
v -7.000000 2.700194 4.750000
v -2.000000 2.200194 5.850099
v -2.000000 2.200194 6.250000
v -2.000000 1.700194 5.850099
v -2.000000 -0.000001 5.850098
v 2.000000 2.200194 5.850099
v 2.000000 2.200194 6.250000
v 2.399902 2.200194 5.850099
v 2.399902 2.200194 6.250000
v 2.000000 2.200194 5.850099
v 2.000000 1.700194 5.850099
v 2.000000 2.200194 6.250000
v 2.000000 -0.000001 6.250000
v -2.000000 0.999999 4.350098
v -2.000000 2.999999 4.350099
v -2.000000 0.999999 4.750000
v -2.000000 2.999999 4.750000
v -2.399902 0.999999 4.750000
v -2.000000 0.999999 4.750000
v -2.399902 2.700194 4.750000
v -2.000000 2.999999 4.750000
v -2.399902 0.999999 4.750000
v -2.399902 2.700194 4.750000
v -2.399902 0.999999 4.350098
v -2.399902 2.700194 4.350099
v 6.600098 2.700195 3.000000
v 6.600098 2.700194 4.350099
v 6.600098 3.000000 3.000000
v 6.600098 2.999999 4.350099
v 6.600098 2.700194 4.750000
v 6.600098 0.999999 4.750000
v 7.000000 2.700194 4.750000
v 7.000000 0.999999 4.750000
v 2.399902 2.700194 4.750000
v 2.399902 0.999999 4.750000
v 2.399902 2.700194 4.350099
v 2.399902 0.999999 4.350098
v 2.399902 2.200194 6.250000
v 2.399902 -0.000001 6.250000
v 2.399902 2.200194 5.850099
v 2.399902 1.700194 5.850099
v 2.000000 0.999999 4.750000
v 2.399902 0.999999 4.750000
v 2.000000 2.999999 4.750000
v 2.399902 2.700194 4.750000
v 7.000000 2.700194 4.750000
v 7.000000 0.999999 4.750000
v 7.000000 2.700194 4.350099
v 7.000000 0.999999 4.350098
v 6.600098 0.999999 4.350098
v 6.600098 0.999999 4.750000
v 6.600098 2.700194 4.350099
v 6.600098 2.700194 4.750000
v 2.000000 2.999999 4.750000
v 7.000000 2.999999 4.750000
v 2.000000 2.999999 4.350099
v 6.600098 2.999999 4.350099
v 6.600098 3.000000 3.000000
v 6.600098 2.999999 4.350099
v 7.000000 3.000000 3.000000
v 7.000000 2.999999 4.750000
v -2.350098 1.999999 5.850099
v -2.350098 2.799804 4.750000
v -2.350098 1.700194 5.850099
v -2.350098 2.499999 4.750000
v -2.049805 2.799804 4.750000
v -2.049805 1.999999 5.850099
v -2.049805 2.499999 4.750000
v -2.049805 1.700194 5.850099
v -2.350098 2.799804 4.750000
v -2.350098 1.999999 5.850099
v -2.049805 2.799804 4.750000
v -2.049805 1.999999 5.850099
v 2.350098 2.799804 4.750000
v 2.350098 1.999999 5.850099
v 2.350098 2.499999 4.750000
v 2.350098 1.700194 5.850099
v 2.350098 1.999999 5.850099
v 2.350098 2.799804 4.750000
v 2.049805 1.999999 5.850099
v 2.049805 2.799804 4.750000
v 2.049805 1.999999 5.850099
v 2.049805 2.799804 4.750000
v 2.049805 1.700194 5.850099
v 2.049805 2.499999 4.750000
v 2.000000 0.999999 4.750000
v 2.000000 -0.000001 6.250000
v 2.000000 -0.000001 4.750000
v 2.000000 0.999999 4.750000
v -2.000000 -0.000001 6.250000
v 2.000000 -0.000001 6.250000
v -2.000000 -0.000001 4.750000
v -2.000000 -0.000001 6.250000
v -2.000000 0.999999 4.750000
v -2.000000 0.999999 4.750000
v -2.000000 -0.000001 6.250000
v 2.000000 0.999999 4.750000
v -7.000000 2.700194 4.350099
v -7.000000 2.700194 4.750000
v -7.000000 2.999999 4.750000
v 7.000000 0.999999 4.750000
v 7.000000 -0.000001 4.750000
v 7.000000 1.000000 3.000000
v -7.000000 0.999999 4.750000
v -2.000000 1.000000 3.000000
v -7.000000 1.000000 3.000000
v -2.399902 2.200194 5.850099
v -2.399902 1.700194 5.850099
v -2.399902 2.200194 6.250000
v -2.000000 -0.000001 6.250000
v -2.000000 -0.000001 5.850098
v -2.000000 2.200194 6.250000
v 2.000000 -0.000001 5.850098
v 2.000000 -0.000001 6.250000
v 2.000000 1.700194 5.850099
v 2.399902 -0.000001 5.850098
v 2.399902 1.700194 5.850099
v 2.399902 -0.000001 6.250000
vt 6.492188 1.925781
vt 3.667969 1.925781
vt 6.492188 1.769531
vt 3.667969 1.769531
vt 3.667969 1.015625
vt 0.140625 1.015625
vt 0.281250 -0.503906
vt 0.400391 -0.765625
vt 0.328125 -0.453125
vt 0.880859 -0.781250
vt 0.960938 -0.441406
vt 7.880859 -0.296875
vt 7.880859 -0.738281
vt 2.910156 -0.296875
vt 2.019531 -0.738281
vt 2.019531 -0.296875
vt 10.021480 1.015625
vt 10.021480 1.769531
vt 6.492188 1.015625
vt 0.529297 -0.781250
vt 0.515625 -0.441406
vt 0.328125 -0.460938
vt 0.402344 -0.773438
vt 0.162109 -0.765625
vt 0.162109 -0.402344
vt 0.337891 -0.765625
vt 0.337891 -0.402344
vt 0.312500 -0.488281
vt 0.312500 -0.761719
vt 0.640625 -0.488281
vt 0.640625 -0.761719
vt 0.640625 -0.492188
vt 0.697266 -0.492188
vt 2.054688 -0.296875
vt 2.054688 -0.734375
vt 5.925781 -0.296875
vt 5.925781 -0.734375
vt 0.515625 -0.351562
vt 0.324219 -0.351562
vt 0.537109 0.324219
vt 0.404297 0.324219
vt 0.697266 -0.761719
vt 0.697266 -0.488281
vt 0.162109 -0.441406
vt 0.337891 -0.441406
vt 0.960938 0.324219
vt 0.960938 -0.351562
vt 0.333984 -0.300781
vt 0.333984 0.000000
vt 0.000000 -0.300781
vt 0.000000 0.000000
vt 0.611328 -0.488281
vt 0.611328 -0.761719
vt 0.312500 -0.492188
vt 0.312500 -0.765625
vt 0.697266 -0.765625
vt 0.000000 -0.359375
vt 1.000000 -0.359375
vt 0.000000 -0.675781
vt 1.000000 -0.675781
vt 0.000000 -0.351562
vt 0.119141 0.000000
vt 0.119141 -0.351562
vt 1.980469 -0.296875
vt 1.386719 -0.734375
vt 1.980469 -0.734375
vt 1.000000 2.164063
vt 0.000000 -0.804688
vt 1.000000 -0.804688
vt 0.000000 2.164063
vt 0.140625 1.769531
vn 0.000000 1.000000 0.000000
vn -0.000000 0.989800 0.142500
vn 0.000000 0.000000 1.000000
vn -1.000000 0.000000 0.000000
vn 1.000000 0.000000 0.000000
vn 0.000000 0.808800 0.588000
vn 0.000000 0.832100 0.554700
usemtl _65
s 1
f 51/18/16 52/19/16 53/20/16
f 52/19/16 54/21/16 53/20/16
f 53/20/16 54/21/16 55/22/17
f 54/21/16 56/23/16 55/22/17
f 57/24/18 58/25/18 59/26/18
f 58/25/18 60/27/18 59/26/18
f 59/26/18 60/27/18 61/28/18
f 62/29/19 63/30/19 64/31/19
f 63/30/19 65/32/19 64/31/19
f 64/31/19 65/32/19 66/33/19
f 67/34/16 68/35/16 69/36/17
f 68/35/16 70/20/16 69/36/17
f 69/36/17 70/20/16 71/22/17
f 72/24/20 73/25/20 74/26/20
f 73/25/20 75/37/20 74/26/20
f 74/26/20 75/37/20 76/38/20
f 77/24/18 78/39/18 79/40/18
f 78/39/18 80/28/18 79/40/18
f 79/40/18 80/28/18 81/27/18
f 82/41/19 83/42/19 84/43/19
f 83/42/19 85/44/19 84/43/19
f 86/45/20 87/46/20 88/47/20
f 87/46/20 89/48/20 88/47/20
f 90/49/20 91/37/20 92/50/20
f 91/37/20 93/38/20 92/50/20
f 94/51/18 95/52/18 96/53/18
f 95/52/18 97/54/18 96/53/18
f 98/55/16 99/56/16 100/57/16
f 99/56/16 101/58/16 100/57/16
f 102/29/20 103/31/20 104/30/20
f 103/31/20 105/32/20 104/30/20
f 106/59/19 107/46/19 108/60/19
f 107/46/19 109/45/19 108/60/19
f 110/37/19 111/40/19 112/38/19
f 111/40/19 113/39/19 112/38/19
f 114/61/18 115/41/18 116/62/18
f 115/41/18 117/43/18 116/62/18
f 118/41/18 119/61/18 120/43/18
f 119/61/18 121/62/18 120/43/18
f 122/54/18 123/53/18 124/52/18
f 123/53/18 125/51/18 124/52/18
f 126/63/16 127/58/16 128/64/16
f 127/58/16 129/56/16 128/64/16
f 130/65/16 131/66/16 132/67/16
f 131/66/16 133/68/16 132/67/16
f 134/46/19 135/59/19 136/45/19
f 135/59/19 137/69/19 136/45/19
f 138/41/18 139/42/18 140/43/18
f 139/42/18 141/44/18 140/43/18
f 142/59/20 143/60/20 144/70/20
f 143/60/20 145/46/20 144/70/20
f 146/66/16 147/65/16 148/68/16
f 147/65/16 149/67/16 148/68/16
f 150/59/19 151/70/19 152/60/19
f 151/70/19 153/45/19 152/60/19
f 154/46/20 155/59/20 156/45/20
f 155/59/20 157/60/20 156/45/20
f 158/71/18 159/72/18 160/49/18
f 159/72/18 161/73/18 160/49/18
f 162/46/19 163/48/19 164/45/19
f 163/48/19 165/47/19 164/45/19
f 166/37/19 167/49/19 168/38/19
f 167/49/19 169/50/19 168/38/19
f 170/42/18 171/41/18 172/44/18
f 171/41/18 173/43/18 172/44/18
f 174/48/20 175/46/20 176/47/20
f 175/46/20 177/45/20 176/47/20
f 178/59/20 179/46/20 180/60/20
f 179/46/20 181/69/20 180/60/20
f 182/72/18 183/71/18 184/73/18
f 183/71/18 185/49/18 184/73/18
f 186/42/20 187/41/20 188/44/20
f 187/41/20 189/43/20 188/44/20
f 190/46/19 191/45/19 192/48/19
f 191/45/19 193/47/19 192/48/19
f 194/64/16 195/56/16 196/63/16
f 195/56/16 197/58/16 196/63/16
f 198/57/16 199/58/16 200/55/16
f 199/58/16 201/56/16 200/55/16
f 202/74/19 203/75/19 204/76/19
f 203/75/19 205/77/19 204/76/19
f 206/75/20 207/74/20 208/77/20
f 207/74/20 209/76/20 208/77/20
f 210/68/21 211/78/21 212/79/21
f 211/78/21 213/80/21 212/79/21
f 214/75/20 215/74/20 216/77/20
f 215/74/20 217/76/20 216/77/20
f 218/78/21 219/68/21 220/80/21
f 219/68/21 221/79/21 220/80/21
f 222/74/19 223/75/19 224/76/19
f 223/75/19 225/77/19 224/76/19
f 226/81/20 227/82/20 228/83/20
f 229/84/22 230/85/22 231/86/22
f 232/83/19 233/82/19 234/81/19
f 235/87/17 236/85/22 237/84/17
f 238/40/19 239/24/19 240/39/19
f 241/33/20 242/32/20 243/31/20
f 244/23/16 245/21/16 246/88/16
f 247/60/19 248/69/19 249/59/19
f 250/45/20 251/46/20 252/60/20
f 253/46/19 254/45/19 255/70/19
f 256/45/20 257/69/20 258/46/20
o polygon3.063
v -6.000000 0.149903 -5.750000
v 6.000000 0.149903 -5.750000
v -8.500000 0.149904 -8.250000
v 8.500000 0.149904 -8.250000
v 6.000000 0.149903 -5.750000
v 6.000000 0.149902 3.750000
v 8.500000 0.149904 -8.250000
v 8.500000 0.149901 6.250000
v 6.000000 0.149902 3.750000
v -6.000000 0.149902 3.750000
v 8.500000 0.149901 6.250000
v -8.500000 0.149901 6.250000
v -8.500000 0.149904 -8.250000
v -8.500000 0.149901 6.250000
v -6.000000 0.149903 -5.750000
v -6.000000 0.149902 3.750000
vt 1.000000 -0.980469
vt 7.000000 -0.980469
vt 0.000000 -0.019531
vt 8.000000 -0.019531
vn 0.000000 1.000000 0.000000
usemtl _10_sdw8
s 1
f 259/89/23 260/90/23 261/91/23
f 260/90/23 262/92/23 261/91/23
f 263/89/23 264/90/23 265/91/23
f 264/90/23 266/92/23 265/91/23
f 267/89/23 268/90/23 269/91/23
f 268/90/23 270/92/23 269/91/23
f 271/92/23 272/91/23 273/90/23
f 272/91/23 274/89/23 273/90/23
o polygon9.030
v 6.000000 6.000000 2.299806
v -6.000000 6.000000 2.299806
v 6.000000 1.000000 2.299805
v -6.000000 1.000000 2.299805
v -6.799805 6.000000 1.500001
v -6.799805 6.000001 -5.499999
v -6.799805 1.000000 1.500000
v -6.799805 1.000001 -5.500000
v 6.799805 1.000001 -5.500000
v 6.799805 6.000001 -5.499999
v 6.799805 1.000000 1.500000
v 6.799805 6.000000 1.500001
v 6.799805 6.147460 2.443849
v 0.000000 10.500000 2.443850
v 0.000000 6.147460 2.443849
v -6.799805 6.147460 2.443849
vt 0.199219 0.000000
vt 0.000000 0.000000
vt 0.199219 -1.000000
vt 0.000000 -1.000000
vn 0.000000 -0.000000 1.000000
vn -1.000000 -0.000000 0.000000
vn 1.000000 0.000000 0.000000
usemtl Material2648
s 1
f 275/93/24 276/94/24 277/95/24
f 276/94/24 278/96/24 277/95/24
f 279/93/25 280/94/25 281/95/25
f 280/94/25 282/96/25 281/95/25
f 283/96/26 284/94/26 285/95/26
f 284/94/26 286/93/26 285/95/26
f 287/95/24 288/94/24 289/96/24
f 288/94/24 290/95/24 289/96/24
o polygon1.128
v 2.000000 6.000000 2.500001
v 0.000000 6.000000 2.500001
v 2.000000 1.000000 2.500000
v 0.000000 1.000000 2.500000
v -2.000000 6.000000 2.500001
v -2.000000 1.000000 2.500000
v 0.000000 6.000000 2.500001
v 0.000000 1.000000 2.500000
vt 1.000000 0.000000
vt 0.027344 0.000000
vt 1.000000 -1.000000
vt 0.027344 -1.000000
vn 0.000000 -0.000000 1.000000
usemtl _64
s 1
f 291/97/27 292/98/27 293/99/27
f 292/98/27 294/100/27 293/99/27
f 295/97/27 296/99/27 297/98/27
f 296/99/27 298/100/27 297/98/27
o polygon2.101
v -4.319824 7.690430 3.000001
v -4.319824 6.629882 3.000001
v -0.930176 8.879882 3.000001
v -0.930176 6.629882 3.000001
v 0.930176 6.629882 3.000001
v 4.319824 6.629882 3.000001
v 0.930176 8.879882 3.000001
v 4.319824 7.690430 3.000001
vt 0.957031 -0.535156
vt 0.957031 -0.960938
vt 0.027344 -0.019531
vt 0.027344 -0.960938
vn -0.000000 0.000000 1.000000
usemtl _68
s 1
f 299/101/28 300/102/28 301/103/28
f 300/102/28 302/104/28 301/103/28
f 303/104/28 304/102/28 305/103/28
f 304/102/28 306/101/28 305/103/28
o polygon0.131
v 2.399902 2.700194 4.549806
v 2.399902 0.999999 4.549805
v 6.600098 2.700194 4.549806
v 6.600098 0.999999 4.549805
v -2.399902 2.700194 4.549806
v -6.600098 2.700194 4.549806
v -2.399902 0.999999 4.549805
v -6.600098 0.999999 4.549805
vt 0.000000 0.000000
vt 0.000000 -1.000000
vt 2.000000 0.000000
vt 2.000000 -1.000000
vn 0.000000 -0.000000 1.000000
usemtl _62
s 1
f 307/105/29 308/106/29 309/107/29
f 308/106/29 310/108/29 309/107/29
f 311/105/29 312/107/29 313/106/29
f 312/107/29 314/108/29 313/106/29
o polygon7.037
v 7.000000 7.299805 3.000001
v 4.319824 7.690430 3.000001
v 7.000000 6.000000 3.000001
v 4.319824 6.629882 3.000001
v 2.000000 6.000000 3.000001
v 0.930176 6.629882 3.000001
v 0.000000 6.000000 3.000001
v 0.930176 8.879882 3.000001
v 0.000000 10.799799 3.000002
v 4.319824 7.690430 3.000001
v 7.000000 7.299805 3.000001
v 7.000000 6.000000 3.000001
v 5.509766 2.299804 3.000000
v 7.000000 1.000000 3.000000
v 2.979980 2.299804 3.000000
v 2.000000 1.000000 3.000000
v 2.979980 4.839844 3.000001
v 2.000000 6.000000 3.000001
v 5.509766 4.839844 3.000001
v 7.000000 6.000000 3.000001
v 5.509766 2.299804 3.000000
v -7.000000 1.000000 3.000000
v -5.509766 2.299804 3.000000
v -7.000000 6.000000 3.000001
v -5.509766 4.839844 3.000001
v -2.000000 6.000000 3.000001
v -2.979980 4.839844 3.000001
v -2.000000 1.000000 3.000000
v -2.979980 2.299804 3.000000
v -7.000000 1.000000 3.000000
v -5.509766 2.299804 3.000000
v -7.000000 7.299805 3.000001
v -4.319824 7.690430 3.000001
v 0.000000 10.799799 3.000002
v -0.930176 8.879882 3.000001
v 0.000000 6.000000 3.000001
v -0.930176 6.629882 3.000001
v -2.000000 6.000000 3.000001
v -4.319824 6.629882 3.000001
v -7.000000 6.000000 3.000001
v 7.000000 7.299805 3.000001
v 7.000000 5.000000 0.379884
v 7.000000 7.299806 -6.749999
v 7.000000 5.000000 -2.879882
v 7.000000 1.000001 -6.750000
v 7.000000 2.000000 -2.879883
v 7.000000 2.000000 0.379883
v 7.000000 1.000001 -6.750000
v 7.000000 2.000000 0.379883
v 7.000000 1.000000 3.000000
v 7.000000 5.000000 0.379884
v 7.000000 6.000000 3.000001
v 7.000000 7.299805 3.000001
v -7.000000 1.000000 3.000000
v -7.000000 2.000000 0.379883
v -7.000000 1.000001 -6.750000
v -7.000000 2.000000 -2.879883
v -7.000000 5.000000 -2.879882
v 2.000000 1.000000 2.500000
v 2.000000 1.000000 3.000000
v 2.000000 6.000000 2.500001
v 2.000000 6.000000 3.000001
v -2.000000 1.000000 2.500000
v -2.000000 6.000000 2.500001
v -2.000000 1.000000 3.000000
v -2.000000 6.000000 3.000001
v -7.000000 7.299805 3.000001
v -7.000000 7.299806 -6.749999
v -7.000000 5.000000 0.379884
v -7.000000 5.000000 -2.879882
v -7.000000 7.299805 3.000001
v -7.000000 5.000000 0.379884
v -7.000000 6.000000 3.000001
v -7.000000 1.000000 3.000000
v -7.000000 7.299805 3.000001
v -7.000000 6.000000 3.000001
v -4.319824 7.690430 3.000001
v -4.319824 6.629882 3.000001
v -7.000000 5.000000 -2.879882
v -7.000000 7.299806 -6.749999
v -7.000000 1.000001 -6.750000
v -7.000000 2.000000 0.379883
v -7.000000 1.000000 3.000000
v -7.000000 5.000000 0.379884
vt 2.289063 0.876953
vt 1.500000 0.990234
vt 2.289063 0.490234
vt 1.500000 0.677734
vt 0.812500 0.490234
vt 0.496094 0.677734
vt 0.218750 0.490234
vt 0.496094 1.341797
vt 0.218750 1.910156
vt 1.851563 -0.603516
vt 2.289063 -0.988281
vt 1.101563 -0.603516
vt 0.812500 -0.988281
vt 1.101563 0.148438
vt 1.851563 0.148438
vt 2.292969 0.876953
vt 3.062500 0.197266
vt 4.800781 0.876953
vt 4.031250 0.197266
vt 4.800781 -0.988281
vt 4.031250 -0.687500
vt 3.062500 -0.687500
vt 2.292969 -0.988281
vt 2.292969 0.490234
vn 0.000000 -0.000000 1.000000
vn 1.000000 0.000000 0.000000
vn -1.000000 -0.000000 0.000000
usemtl _63
s 1
f 315/109/30 316/110/30 317/111/30
f 316/110/30 318/112/30 317/111/30
f 317/111/30 318/112/30 319/113/30
f 318/112/30 320/114/30 319/113/30
f 319/113/30 320/114/30 321/115/30
f 320/114/30 322/116/30 321/115/30
f 321/115/30 322/116/30 323/117/30
f 322/116/30 324/110/30 323/117/30
f 323/117/30 324/110/30 325/109/30
f 326/111/30 327/118/30 328/119/30
f 327/118/30 329/120/30 328/119/30
f 328/119/30 329/120/30 330/121/30
f 329/120/30 331/122/30 330/121/30
f 330/121/30 331/122/30 332/113/30
f 331/122/30 333/123/30 332/113/30
f 332/113/30 333/123/30 334/111/30
f 333/123/30 335/118/30 334/111/30
f 336/119/30 337/118/30 338/111/30
f 337/118/30 339/123/30 338/111/30
f 338/111/30 339/123/30 340/113/30
f 339/123/30 341/122/30 340/113/30
f 340/113/30 341/122/30 342/121/30
f 341/122/30 343/120/30 342/121/30
f 342/121/30 343/120/30 344/119/30
f 343/120/30 345/118/30 344/119/30
f 346/109/30 347/110/30 348/117/30
f 347/110/30 349/116/30 348/117/30
f 348/117/30 349/116/30 350/115/30
f 349/116/30 351/114/30 350/115/30
f 350/115/30 351/114/30 352/113/30
f 351/114/30 353/112/30 352/113/30
f 352/113/30 353/112/30 354/111/30
f 355/124/31 356/125/31 357/126/31
f 356/125/31 358/127/31 357/126/31
f 357/126/31 358/127/31 359/128/31
f 358/127/31 360/129/31 359/128/31
f 359/128/31 360/129/31 361/130/31
f 362/128/31 363/130/31 364/131/31
f 363/130/31 365/125/31 364/131/31
f 364/131/31 365/125/31 366/132/31
f 365/125/31 367/124/31 366/132/31
f 368/131/32 369/130/32 370/128/32
f 369/130/32 371/129/32 370/128/32
f 370/128/32 371/129/32 372/127/32
f 373/121/32 374/121/32 375/113/32
f 374/121/32 376/113/32 375/113/32
f 377/121/31 378/113/31 379/121/31
f 378/113/31 380/113/31 379/121/31
f 381/124/32 382/126/32 383/125/32
f 382/126/32 384/127/32 383/125/32
f 385/124/32 386/125/32 387/132/32
f 386/125/32 388/131/32 387/132/32
f 389/109/30 390/111/30 391/110/30
f 390/111/30 392/112/30 391/110/30
f 393/127/32 394/126/32 395/128/32
f 396/130/32 397/131/32 398/125/32
